<svg width="24" height="24" viewBox="0 0 24 24" fill="none" xmlns="http://www.w3.org/2000/svg">
    <g clip-path="url(#djg34yczga)">
        <path d="M7.5 13a4.5 4.5 0 1 1 0-9 4.5 4.5 0 0 1 0 9zM14 24H1a1 1 0 0 1-1-1v-.5a7.5 7.5 0 1 1 15 0v.5a1 1 0 0 1-1 1zm3.5-15a4.5 4.5 0 1 1 0-9 4.5 4.5 0 0 1 0 9zm-1.421 2.021a6.825 6.825 0 0 0-4.67 2.831A9.537 9.537 0 0 1 16.323 19H23a1 1 0 0 0 1-1v-.038a7.008 7.008 0 0 0-7.921-6.941z" fill="#fff"/>
    </g>
    <defs>
        <clipPath id="djg34yczga">
            <path fill="#fff" d="M0 0h24v24H0z"/>
        </clipPath>
    </defs>
</svg>
