<svg width="24" height="24" viewBox="0 0 24 24" fill="none" xmlns="http://www.w3.org/2000/svg">
    <path d="m23.999 13.015-.032-.056c-.018-.248-.037-.497-.053-.744a9.198 9.198 0 0 0-.56-2.58c-.424-1.15-1.002-2.194-1.983-2.987-.674-.545-1.418-.899-2.308-.895l-.057-.036h-3.904c.098-.105.15-.167.208-.223 1.222-1.206 2.445-2.412 3.668-3.616.304-.3.408-.656.308-1.066-.203-.831-1.32-1.019-1.875-.469-1.74 1.727-3.493 3.444-5.233 5.172-.16.159-.245.153-.402-.003-1.717-1.704-3.444-3.397-5.16-5.101a1.42 1.42 0 0 0-.753-.397c-.655-.127-1.33.61-1.18 1.254.071.308.229.543.444.755l2.837 2.798.908.896H4.95l-.053-.003c-.445.107-.915.155-1.33.333-1.068.46-1.786 1.303-2.35 2.285A8.921 8.921 0 0 0 .212 11.08C.09 11.7.067 12.334 0 12.962l.005.103v3.627L0 16.744c.031.36.036.726.1 1.082.119.656.22 1.321.422 1.954.44 1.374 1.12 2.615 2.335 3.49.546.394 1.152.659 1.835.72l.152-.001c.094.004.187.011.28.011H18.88c.093 0 .186-.007.28-.011h.1c.454-.135.94-.209 1.356-.419 1.07-.54 1.788-1.442 2.313-2.48.698-1.378 1.02-2.853 1.038-4.392l.033-.107-.001-3.576zm-9.178 1.68c1.1.911 1.325 2.285.575 3.498-1.74 2.813-6.198 1.813-8.188-.092l1.508-1.753c2.182 1.665 3.906 1.907 4.463.644-.396-1.214-3.115-1.23-4.02-2.259-.919-1.044-.82-2.412.077-3.437 1.832-2.092 5.499-1.528 7.28.307-.495.556-.956 1.076-1.466 1.652-.926-.72-3.186-1.989-3.88-.455.376 1.089 2.77 1.166 3.65 1.895z" fill="#fff"/>
</svg>
