<svg width="20" height="20" viewBox="0 0 20 20" fill="none" xmlns="http://www.w3.org/2000/svg">
    <g clip-path="url(#sw2les45ma)">
        <path d="M10 0a10 10 0 1 0 10 10A10.011 10.011 0 0 0 10 0zm7.206 5.833h-2.684a16.396 16.396 0 0 0-2.351-3.87 8.36 8.36 0 0 1 5.035 3.87zM13.75 10a8.506 8.506 0 0 1-.397 2.5H6.647A8.51 8.51 0 0 1 6.25 10a8.51 8.51 0 0 1 .397-2.5h6.706c.257.809.39 1.652.397 2.5zm-6.435 4.167h5.37A16.344 16.344 0 0 1 10 17.99a16.309 16.309 0 0 1-2.685-3.823zm0-8.334A16.345 16.345 0 0 1 10 2.01a16.308 16.308 0 0 1 2.685 3.823h-5.37zm.518-3.87a16.396 16.396 0 0 0-2.355 3.87H2.794a8.36 8.36 0 0 1 5.04-3.87zM2.051 7.5h2.866a10.014 10.014 0 0 0-.334 2.5c.006.844.118 1.684.334 2.5H2.05a8.327 8.327 0 0 1 0-5zm.743 6.667h2.684a16.399 16.399 0 0 0 2.355 3.87 8.36 8.36 0 0 1-5.039-3.87zm9.377 3.87a16.396 16.396 0 0 0 2.35-3.87h2.685a8.36 8.36 0 0 1-5.035 3.87zm5.778-5.537h-2.866a10.01 10.01 0 0 0 .334-2.5 10.01 10.01 0 0 0-.334-2.5h2.865a8.327 8.327 0 0 1 0 5h.001z" fill="#fff"/>
    </g>
    <defs>
        <clipPath id="sw2les45ma">
            <path fill="#fff" d="M0 0h20v20H0z"/>
        </clipPath>
    </defs>
</svg>
