<svg width="24" height="24" viewBox="0 0 24 24" fill="none" xmlns="http://www.w3.org/2000/svg">
<path d="M19.039 7.7028C19.361 7.7028 19.7268 7.86358 20.1366 8.18514C20.7073 8.65286 21.1317 9.29598 21.4976 10.3191C21.7463 10.9622 21.8927 11.6492 21.9366 12.3216C21.9366 12.5116 21.9659 12.7016 21.9805 12.9062V13.0816L22.0244 13.447V16.2533L21.9951 16.3557V16.648C21.9805 17.9488 21.7024 19.0889 21.1756 20.1559C20.7659 20.9598 20.3122 21.4714 19.7415 21.7491L19.6244 21.8076C19.439 21.905 19.2976 21.9537 19.2 21.9537C19.1268 21.9537 18.9805 21.9537 18.9073 21.9537H5.06341H5.00488C4.66829 21.9099 4.2878 21.7783 4.03902 21.6029C3.32195 21.0914 2.80976 20.3021 2.4439 19.1328C2.3122 18.7235 2.22439 18.2558 2.13659 17.7442L2.07805 17.4373C2.04878 17.3057 2.04878 17.1157 2.03415 16.9111C2.03415 16.838 2.03415 16.7649 2.03415 16.6918V12.9793C2.04878 12.8185 2.06341 12.6724 2.07805 12.5116C2.10732 12.1169 2.13659 11.7515 2.20976 11.4153C2.3561 10.6699 2.61951 9.95372 2.98537 9.29598C3.42439 8.52132 3.86341 8.08283 4.39024 7.84897L4.49268 7.80512C4.69756 7.71742 4.72683 7.7028 5.01951 7.67357H19.0683M7.08293 15.1864L5.70732 16.7795L4.46341 18.2119L5.83902 19.5274C7.36097 20.9744 9.74634 21.9245 11.9415 21.9245C14.1366 21.9245 16.039 20.9744 17.122 19.2351C18.161 17.5688 18.0732 15.5956 17.0049 14.0901C17.3561 13.6955 17.6927 13.3155 18.0439 12.9208L19.2878 11.5323L17.9854 10.2022C16.6098 8.79903 14.561 7.95128 12.4829 7.95128C10.4049 7.95128 8.91219 8.66748 7.77073 9.96833C6.42439 11.503 6.19024 13.5347 7.09756 15.1864M5.72195 0C5.12195 0 4.55122 0.672351 4.69756 1.27162C4.77073 1.57856 4.93171 1.81242 5.13658 2.03167L7.97561 4.82339L8.88293 5.71498H4.96098C4.17073 5.75883 3.99512 5.86115 3.57073 6.05116C2.50244 6.50426 1.78537 7.35201 1.21463 8.3313C0.731707 9.17905 0.395122 10.1145 0.204878 11.0792C0.0878049 11.6931 0.0585366 12.3362 0 12.9647V13.067V16.6918V16.7503C0.0292683 17.1157 0.0292683 17.4811 0.0878049 17.8319C0.204878 18.4896 0.307317 19.1474 0.512195 19.7905C0.951219 21.1644 1.63902 22.4068 2.85366 23.2838C3.39512 23.6784 4.1561 23.9415 4.8439 24C4.93171 24 5.03415 24 5.12195 24H18.878C18.9659 24 19.1707 24 19.2585 24C19.8878 23.9708 20.1951 23.7954 20.6195 23.5761C21.6878 23.0353 22.4049 22.1291 22.9317 21.0914C23.6341 19.7174 23.9561 18.2412 23.9707 16.7065L24 16.6041V13.0378L23.9707 12.9793C23.9561 12.7308 23.9268 12.4823 23.9122 12.2339C23.8537 11.3569 23.6634 10.4799 23.3561 9.66139C22.9317 8.5067 22.361 7.46894 21.3659 6.67966C20.6927 6.13886 19.9024 5.74421 19.0098 5.74421H15.1024C15.2049 5.6419 15.2488 5.58344 15.3073 5.52497C16.5366 4.32643 17.7512 3.11328 18.9805 1.91474C19.2878 1.6078 19.3902 1.257 19.2878 0.847747C19.1561 0.336175 18.6878 0.0730816 18.2195 0.0730816C17.9268 0.0730816 17.6341 0.175396 17.4146 0.380024C15.6732 2.10475 13.9171 3.81486 12.1756 5.5542C12.1024 5.62728 12.0293 5.67113 11.9707 5.67113C11.9122 5.67113 11.8537 5.62728 11.7659 5.5542C10.0537 3.85871 8.32683 2.16322 6.6 0.453106C6.39512 0.248477 6.13171 0.102314 5.85366 0.0584653C5.82439 0 5.78049 0 5.72195 0ZM11.9122 17.7734C12.5122 17.7734 12.9659 17.5104 13.2 16.9696C12.8049 15.7564 10.0829 15.7418 9.17561 14.7186C8.25366 13.6809 8.3561 12.3069 9.24878 11.2838C10.0683 10.3484 11.2537 9.95372 12.4683 9.95372C13.6829 9.95372 15.5561 10.5822 16.5366 11.5907C16.039 12.1462 15.5854 12.6724 15.0732 13.2424C14.4732 12.7747 13.2878 12.0585 12.3512 12.0585C11.8537 12.0585 11.4293 12.2485 11.1951 12.7893C11.5756 13.8709 13.961 13.9586 14.839 14.6894C15.9366 15.5956 16.1707 16.9696 15.4098 18.1827C14.6341 19.4251 13.3317 19.922 11.9415 19.922C10.5512 19.922 8.32683 19.1474 7.22927 18.0804L8.73658 16.3264C9.99512 17.2765 11.0927 17.7734 11.9122 17.7734Z" fill="#64748B"/>
</svg>
