<svg width="24" height="24" viewBox="0 0 24 24" fill="none" xmlns="http://www.w3.org/2000/svg">
<g clip-path="url(#clip0_0_237)">
<path d="M22.766 4.56564C22.4006 4.41342 21.9981 4.37341 21.6099 4.4507C21.2217 4.52799 20.8653 4.71908 20.586 4.99964L18 7.58564L13.414 2.99964C13.0389 2.62469 12.5303 2.41406 12 2.41406C11.4697 2.41406 10.9611 2.62469 10.586 2.99964L6 7.58564L3.414 4.99964C3.1343 4.72002 2.77797 4.5296 2.39006 4.45247C2.00216 4.37533 1.60009 4.41494 1.23469 4.56628C0.869291 4.71762 0.556965 4.9739 0.337197 5.30272C0.117428 5.63154 8.44486e-05 6.01814 0 6.41364L0 16.9996C0.00158786 18.3252 0.528882 19.5961 1.46622 20.5334C2.40356 21.4708 3.67441 21.998 5 21.9996H19C20.3256 21.998 21.5964 21.4708 22.5338 20.5334C23.4711 19.5961 23.9984 18.3252 24 16.9996V6.41364C24.0001 6.0181 23.8829 5.63142 23.6633 5.30249C23.4436 4.97355 23.1314 4.71712 22.766 4.56564Z" fill="white"/>
</g>
<defs>
<clipPath id="clip0_0_237">
<rect width="24" height="24" fill="white"/>
</clipPath>
</defs>
</svg>
